# xmcd CD database file
#
# Track frame offsets:
#	182
#	9857
#	27615
#	40612
#	57040
#	75160
#	89882
#	103065
#	115077
#	135110
#	148070
#	164972
#	178590
#	192175
#
# Disc length: 2742 seconds
#
# Revision: 0
# Processed by: cddbd v1.5.2PL0 Copyright (c) Steve Scherf et al.
# Submitted via: CDex 1.70beta2
#
DISCID=b20ab40e
DTITLE=Dizzy Gillespie - The Best Of Dizzy Gillespie
DYEAR=1993
DGENRE=Jazz
TTITLE0=Night in Tunisia
TTITLE1=Conge blues
TTITLE2=Oo la la
TTITLE3=Lover come back to me
TTITLE4=Halleluyah
TTITLE5=Stay on it
TTITLE6=Confirmation
TTITLE7=Dizzy atmosphere
TTITLE8=Slam slam blues
TTITLE9=Jump did-leba
TTITLE10=Get happy
TTITLE11=Cool breeze
TTITLE12=Minor walk
TTITLE13=Ow
EXTD=YEAR: 1993
EXTT0=
EXTT1=
EXTT2=
EXTT3=
EXTT4=
EXTT5=
EXTT6=
EXTT7=
EXTT8=
EXTT9=
EXTT10=
EXTT11=
EXTT12=
EXTT13=
PLAYORDER=
